<?xml version="1.0" encoding="UTF-8"?>
<svg id="_图层_2" data-name="图层 2" xmlns="http://www.w3.org/2000/svg"
     viewBox="0 0 765.87 184.45"
     width="120pt" height="60pt"
>
  <defs>
    <style>
      .cls-1 {
        fill: #2ed9c3;
      }
    </style>
  </defs>
  <g id="_图层_1-2" data-name="图层 1">
    <g>
      <g>
        <path class="cls-1" d="M49.74,184.45H0V2.09H49.74V184.45Z"/>
        <path class="cls-1" d="M256.97,2.09V43.53h-107.76c-22.05,0-33.16,4.64-33.16,14.09,0,9.95,11.11,14.92,33.16,14.92h24.87c55.21,0,82.89,18.57,82.89,55.54s-27.69,56.37-82.89,56.37H66.32v-41.45h107.76c22.05,0,33.16-4.97,33.16-14.92s-11.11-14.09-33.16-14.09h-24.87c-55.21,0-82.89-18.73-82.89-56.37S94,2.09,149.21,2.09h107.76Z"/>
        <path class="cls-1" d="M455.25,2.09V43.53h-132.63v29.01h116.05v41.45h-116.05v70.46h-49.74V2.09h182.37Z"/>
      </g>
      <g>
        <path class="cls-1" d="M566.21,182.95h-25.69l.28-60.21h-29.54l-.28,60.21h-25.53l.28-60.21h-11.56l.09-20.39h11.56l.03-6.26c.04-9.42,3.08-16.94,9.1-22.56,6.02-5.62,13.95-8.43,23.8-8.43,4.92,0,9.79,.91,14.6,2.73l-4.75,20.23c-2.99-.64-5.13-.96-6.42-.96-3.21,0-5.81,.91-7.8,2.73-1.99,1.82-2.99,4.28-3,7.39l-.02,5.14h55.23l-.37,80.61Zm-23.09-94.17c-2.82-2.73-4.23-6.13-4.21-10.2,.02-3.96,1.45-7.39,4.3-10.28,2.85-2.89,6.42-4.34,10.7-4.34,3,0,5.72,.83,8.18,2.49,2.45,1.66,4.16,3.64,5.11,5.94,.95,2.3,1.43,4.36,1.42,6.18-.02,4.07-1.45,7.47-4.3,10.2-2.85,2.73-6.36,4.09-10.54,4.09s-7.83-1.36-10.66-4.09Z"/>
        <path class="cls-1" d="M586.12,182.95l.53-115.61h25.69l-.53,115.61h-25.69Z"/>
        <path class="cls-1" d="M747.14,102.27c3.79,1.55,7.1,3.77,9.92,6.66,2.82,2.89,5,6.37,6.54,10.44,1.53,4.07,2.29,8.46,2.27,13.17l-.23,50.42h-25.53l.21-44.96c.02-4.39-1.28-7.98-3.88-10.76-2.61-2.78-5.79-4.17-9.53-4.17-3.53,0-6.56,.99-9.09,2.97-2.53,1.98-4.28,4.6-5.26,7.87-.98,3.26-1.47,6.45-1.49,9.55l-.18,39.5h-25.69l.21-44.96c.02-4.39-1.28-7.98-3.88-10.76-2.61-2.78-5.84-4.17-9.7-4.17-4.71,0-8.46,1.77-11.26,5.3-2.8,3.53-4.21,8.56-4.24,15.09l-.18,39.5h-25.69l.37-80.61h25.69l-.03,7.39c5.92-6.53,13.85-9.79,23.81-9.79,5.57,0,10.67,1.2,15.32,3.61,4.65,2.41,8.3,5.75,10.95,10.04,3.34-4.28,7.45-7.63,12.33-10.04,4.88-2.41,10.32-3.61,16.31-3.61,4.17,0,8.16,.78,11.95,2.33Z"/>
      </g>
      <path class="cls-1" d="M494.62,0V3.99h-7.26V22.85h-4.58V3.99h-7.26V0h19.1Zm9.28,0l6.84,17.2,6.72-17.2h6.43V22.85h-4.58l-.06-16.42-6.25,16.42h-4.58l-6.37-16.42V22.85h-4.52V0h6.37Z"/>
    </g>
  </g>
</svg>