<?xml version="1.0" standalone="no"?><!DOCTYPE svg PUBLIC "-//W3C//DTD SVG 1.1//EN" "http://www.w3.org/Graphics/SVG/1.1/DTD/svg11.dtd"><svg t="1692331128844" class="icon" viewBox="0 0 1076 1024" version="1.1" xmlns="http://www.w3.org/2000/svg" p-id="2905" xmlns:xlink="http://www.w3.org/1999/xlink" width="210.15625" height="200"><path d="M1017.26822 272.166567 635.409945 272.166567c-17.675664 0-31.977309-14.317902-31.977309-31.977309s14.301646-31.977309 31.977309-31.977309l381.858275 0c17.675664 0 31.977309 14.317902 31.977309 31.977309S1034.943884 272.166567 1017.26822 272.166567z" fill="#231815" p-id="2906"></path><path d="M1017.26822 937.953511 635.409945 937.953511c-17.675664 0-31.977309-14.317902-31.977309-31.977309 0-17.659408 14.301646-31.977309 31.977309-31.977309l381.858275 0c17.675664 0 31.977309 14.317902 31.977309 31.977309C1049.247336 923.635609 1034.943884 937.953511 1017.26822 937.953511z" fill="#231815" p-id="2907"></path><path d="M1017.26822 725.601707 635.409945 725.601707c-17.675664 0-31.977309-14.317902-31.977309-31.977309 0-17.659408 14.301646-31.977309 31.977309-31.977309l381.858275 0c17.675664 0 31.977309 14.317902 31.977309 31.977309C1049.247336 711.282 1034.943884 725.601707 1017.26822 725.601707z" fill="#231815" p-id="2908"></path><path d="M473.648542 272.166567 57.938102 272.166567c-17.675664 0-31.977309-14.317902-31.977309-31.977309s14.301646-31.977309 31.977309-31.977309l415.71044 0c17.675664 0 31.977309 14.317902 31.977309 31.977309S491.3224 272.166567 473.648542 272.166567z" fill="#231815" p-id="2909"></path><path d="M265.792419 480.022691c-17.675664 0-31.977309-14.317902-31.977309-31.977309L233.815109 32.334941c0-17.659408 14.301646-31.977309 31.977309-31.977309s31.977309 14.317902 31.977309 31.977309l0 415.71044C297.769728 465.704789 283.468082 480.022691 265.792419 480.022691z" fill="#231815" p-id="2910"></path><path d="M457.658081 1023.642369c-8.182174 0-16.364348-3.122953-22.608449-9.36886L51.316501 630.542183c-12.491814-12.491814-12.491814-32.72689 0-45.218704s32.72689-12.491814 45.218704 0l383.733131 383.733131c12.491814 12.491814 12.491814 32.72689 0 45.218704C474.02243 1020.521221 465.840255 1023.642369 457.658081 1023.642369z" fill="#231815" p-id="2911"></path><path d="M73.926756 1023.642369c-8.182174 0-16.364348-3.122953-22.608449-9.36886-12.491814-12.491814-12.491814-32.72689 0-45.218704L435.049632 585.323479c12.491814-12.491814 32.72689-12.491814 45.218704 0s12.491814 32.72689 0 45.218704L96.535205 1014.275314C90.289299 1020.521221 82.108931 1023.642369 73.926756 1023.642369z" fill="#231815" p-id="2912"></path></svg>